<svg width="100" height="100" viewBox="0 0 100 100" fill="none" xmlns="http://www.w3.org/2000/svg">
<g id="next 1">
<g id="Layer_8_copy_4_1_">
<path id="Vector" d="M41.762 27.26V35.554C41.762 36.125 42.067 36.654 42.562 36.939L62.774 48.608C63.84 49.224 63.84 50.763 62.774 51.379L42.562 63.048C42.067 63.334 41.762 63.862 41.762 64.433V72.727C41.762 73.958 43.095 74.728 44.161 74.112L83.536 51.379C84.602 50.763 84.602 49.224 83.536 48.608L44.161 25.875C43.095 25.259 41.762 26.029 41.762 27.26Z" stroke="#ECECEC" stroke-miterlimit="10"/>
<path id="Vector_2" d="M21 27.6018V35.8958C21 36.4668 21.305 36.9958 21.8 37.2808L42.012 48.9498C43.078 49.5658 43.078 51.1048 42.012 51.7208L21.8 63.3898C21.305 63.6758 21 64.2038 21 64.7748V73.0688C21 74.2998 22.333 75.0698 23.399 74.4538L62.774 51.7208C63.84 51.1048 63.84 49.5658 62.774 48.9498L23.399 26.2168C22.333 25.6008 21 26.3708 21 27.6018Z" stroke="#ECECEC" stroke-miterlimit="10"/>
</g>
</g>
</svg>
