<svg width="68" height="67" viewBox="0 0 68 67" fill="none" xmlns="http://www.w3.org/2000/svg">
<g id="music-pause-button-pair-of-lines-svgrepo-com 1" clip-path="url(#clip0_16_22)">
<g id="Group">
<path id="Vector" d="M6 11.0302V55.969C6 62.0626 9.13334 67 12.9989 67C16.8648 67 20 62.0624 20 55.969V11.0302C20 4.93954 16.8648 5.66752e-07 12.9989 5.66752e-07C9.13334 -0.00193215 6 4.93954 6 11.0302Z" fill="#ECECEC"/>
<path id="Vector_2" d="M51.9988 0C48.1335 0 45 4.93968 45 11.0306V55.9706C45 62.0644 48.1335 67 51.9988 67C55.8641 67 59 62.0642 59 55.9706V11.0325C58.9983 4.94161 55.8641 0 51.9988 0Z" fill="#ECECEC"/>
</g>
</g>
<defs>
<clipPath id="clip0_16_22">
<rect width="68" height="67" fill="white"/>
</clipPath>
</defs>
</svg>
