<svg width="100" height="100" viewBox="0 0 100 100" fill="none" xmlns="http://www.w3.org/2000/svg">
<g id="prev 1">
<g id="Layer_8_copy_4">
<path id="Vector" d="M58.644 27.26V35.554C58.644 36.125 58.339 36.654 57.844 36.939L37.632 48.608C36.566 49.224 36.566 50.763 37.632 51.379L57.844 63.048C58.339 63.334 58.644 63.862 58.644 64.433V72.727C58.644 73.958 57.311 74.728 56.245 74.112L16.869 51.379C15.803 50.763 15.803 49.224 16.869 48.608L56.244 25.875C57.311 25.259 58.644 26.029 58.644 27.26Z" stroke="#ECECEC" stroke-miterlimit="10"/>
<path id="Vector_2" d="M79.5745 27.6018V35.8958C79.5745 36.4668 79.2695 36.9958 78.7745 37.2808L58.5635 48.9498C57.4975 49.5658 57.4975 51.1048 58.5635 51.7208L78.7755 63.3898C79.2705 63.6758 79.5755 64.2038 79.5755 64.7748V73.0688C79.5755 74.2998 78.2425 75.0698 77.1765 74.4538L37.7995 51.7208C36.7335 51.1048 36.7335 49.5658 37.7995 48.9498L77.1745 26.2168C78.2415 25.6008 79.5745 26.3708 79.5745 27.6018Z" stroke="#ECECEC" stroke-miterlimit="10"/>
</g>
</g>
</svg>
